<?xml version="1.0" encoding="UTF-8" standalone="no"?>
<svg
   xmlns:dc="http://purl.org/dc/elements/1.1/"
   xmlns:cc="http://creativecommons.org/ns#"
   xmlns:rdf="http://www.w3.org/1999/02/22-rdf-syntax-ns#"
   xmlns:svg="http://www.w3.org/2000/svg"
   xmlns="http://www.w3.org/2000/svg"
   xmlns:xlink="http://www.w3.org/1999/xlink"
   xmlns:sodipodi="http://sodipodi.sourceforge.net/DTD/sodipodi-0.dtd"
   xmlns:inkscape="http://www.inkscape.org/namespaces/inkscape"
   viewBox="0 0 454.28 423.20999"
   version="1.1"
   id="svg917"
   sodipodi:docname="candle.svg"
   width="454.28"
   height="423.20999"
   inkscape:version="1.0.1 (c497b03c, 2020-09-10)">
  <metadata
     id="metadata921">
    <rdf:RDF>
      <cc:Work
         rdf:about="">
        <dc:format>image/svg+xml</dc:format>
        <dc:type
           rdf:resource="http://purl.org/dc/dcmitype/StillImage" />
        <dc:title />
      </cc:Work>
    </rdf:RDF>
  </metadata>
  <sodipodi:namedview
     pagecolor="#ffffff"
     bordercolor="#666666"
     borderopacity="1"
     objecttolerance="10"
     gridtolerance="10"
     guidetolerance="10"
     inkscape:pageopacity="0"
     inkscape:pageshadow="2"
     inkscape:window-width="1536"
     inkscape:window-height="915"
     id="namedview919"
     showgrid="false"
     fit-margin-top="0"
     fit-margin-left="0"
     fit-margin-right="0"
     fit-margin-bottom="0"
     lock-margins="true"
     inkscape:zoom="1.1125"
     inkscape:cx="116.40059"
     inkscape:cy="264.11605"
     inkscape:window-x="0"
     inkscape:window-y="23"
     inkscape:window-maximized="1"
     inkscape:current-layer="Layer_3"
     inkscape:document-rotation="0" />
  <defs
     id="defs862">
    <style
       id="style833">.cls-1{fill:none;}.cls-2{fill:url(#linear-gradient);}.cls-3{fill:url(#linear-gradient-2);}.cls-4{fill:url(#linear-gradient-3);}.cls-5{fill:url(#linear-gradient-4);}.cls-6{fill:url(#linear-gradient-5);}.cls-7{fill:url(#linear-gradient-6);}.cls-8{fill:url(#linear-gradient-7);}.cls-9{fill:url(#linear-gradient-8);}.cls-10{fill:url(#linear-gradient-9);}.cls-11{fill:url(#linear-gradient-10);}.cls-12{fill:url(#linear-gradient-11);}.cls-13{fill:url(#linear-gradient-12);}.cls-14{fill:#f4981e;}.cls-15{fill:#ff0013;}.cls-16{clip-path:url(#clip-path);}.cls-17{fill:#a00e64;}.cls-18{fill:#c9161d;}.cls-19{fill:#f7941d;}.cls-20{fill:#f37125;}</style>
    <linearGradient
       id="linear-gradient"
       x1="436.56"
       y1="460.95999"
       x2="434.76999"
       y2="564.60999"
       gradientUnits="userSpaceOnUse">
      <stop
         offset="0"
         stop-color="#bc1744"
         id="stop835" />
      <stop
         offset="1"
         stop-color="#6d022c"
         id="stop837" />
    </linearGradient>
    <linearGradient
       id="linear-gradient-2"
       x1="489.85001"
       y1="461.88"
       x2="488.04999"
       y2="565.53003"
       xlink:href="#linear-gradient" />
    <linearGradient
       id="linear-gradient-3"
       x1="536.78003"
       y1="462.70001"
       x2="534.98999"
       y2="566.34998"
       xlink:href="#linear-gradient" />
    <linearGradient
       id="linear-gradient-4"
       x1="572.65997"
       y1="463.32001"
       x2="570.85999"
       y2="566.96997"
       xlink:href="#linear-gradient" />
    <linearGradient
       id="linear-gradient-5"
       x1="606.59998"
       y1="463.91"
       x2="604.81"
       y2="567.56"
       xlink:href="#linear-gradient" />
    <linearGradient
       id="linear-gradient-6"
       x1="669.71002"
       y1="465.04999"
       x2="667.90997"
       y2="568.70001"
       xlink:href="#linear-gradient" />
    <linearGradient
       id="linear-gradient-7"
       x1="736.28998"
       y1="466.16"
       x2="734.48999"
       y2="569.81"
       xlink:href="#linear-gradient" />
    <linearGradient
       id="linear-gradient-8"
       x1="791.19"
       y1="467.10999"
       x2="789.39001"
       y2="570.76001"
       xlink:href="#linear-gradient" />
    <linearGradient
       id="linear-gradient-9"
       x1="844.71997"
       y1="468.04001"
       x2="842.91998"
       y2="571.69"
       xlink:href="#linear-gradient" />
    <linearGradient
       id="linear-gradient-10"
       x1="640"
       y1="313.32001"
       x2="640"
       y2="443.67001"
       gradientUnits="userSpaceOnUse">
      <stop
         offset="0"
         stop-color="#f2e52b"
         id="stop848" />
      <stop
         offset="1"
         stop-color="#f7a824"
         id="stop850" />
    </linearGradient>
    <linearGradient
       id="linear-gradient-11"
       x1="571.25"
       y1="348.35001"
       x2="570.28998"
       y2="318.59"
       xlink:href="#linear-gradient" />
    <linearGradient
       id="linear-gradient-12"
       x1="710.46997"
       y1="349.01001"
       x2="711.42999"
       y2="313.48999"
       gradientUnits="userSpaceOnUse">
      <stop
         offset="0"
         stop-color="#961744"
         id="stop854" />
      <stop
         offset="1"
         stop-color="#6d022c"
         id="stop856" />
    </linearGradient>
    <clipPath
       id="clip-path">
      <path
         class="cls-1"
         d="m 781.85,324.53 q -1.29,5.63 -3,11.09 c -0.75,2.4 -1.57,4.77 -2.44,7.11 a 145.54,145.54 0 0 1 -272.61,0.5 c -1,-2.5 -1.82,-5 -2.63,-7.61 q -1.73,-5.46 -3,-11.09 l 0.46,-0.14 c 40.4,-12.31 87.26,-19.5 137.3,-19.87 h 7.55 c 50.1,0.32 97,7.46 137.48,19.75 z"
         id="path859" />
    </clipPath>
    <linearGradient
       inkscape:collect="always"
       xlink:href="#linear-gradient"
       id="linearGradient923"
       gradientUnits="userSpaceOnUse"
       x1="436.56"
       y1="460.95999"
       x2="434.76999"
       y2="564.60999" />
  </defs>
  <g
     id="Layer_3"
     data-name="Layer 3"
     transform="translate(-412.85,-164)"
     style="display:inline">
    <path
       class="cls-2"
       d="m 412.85,466.18 26.92,-0.11 a 64,64 0 0 1 7.27,0.29 24.75,24.75 0 0 1 4.83,1.09 9.12,9.12 0 0 1 4.93,4.85 19.77,19.77 0 0 1 1.7,8.75 q 0,9.33 -0.08,18.66 a 38.54,38.54 0 0 1 -0.28,5 18.3,18.3 0 0 1 -0.92,3.6 q -1.82,5.33 -8.12,7.66 5.38,1.41 7.49,4.89 2.11,3.48 2.07,10.52 -0.06,11.37 -0.11,22.72 c 0,2 0,3.66 -0.09,5 -0.09,1.34 -0.13,2.58 -0.27,3.65 a 29.86,29.86 0 0 1 -0.52,3 c -0.22,0.93 -0.5,1.95 -0.85,3.06 q -3,9 -13.95,11.4 -15.06,3.27 -30,7 z m 18.71,42.76 a 5.13,5.13 0 0 1 1,0 4.75,4.75 0 0 0 0.84,0 q 5.25,-0.45 7,-2 1.75,-1.55 1.75,-5.71 c 0,-2.21 0,-4.41 0,-6.62 q 0,-4 -1.27,-5.51 -1.27,-1.51 -4.23,-1.35 l -6.17,0.28 q 0,10.49 0,21 z m -0.11,51.9 1.66,-0.31 a 22.49,22.49 0 0 0 4.14,-1.09 6.48,6.48 0 0 0 2.5,-1.58 5.41,5.41 0 0 0 1.22,-2.64 22.48,22.48 0 0 0 0.33,-4.1 q 0,-7.92 0.05,-15.85 c 0,-2.8 -0.37,-4.66 -1.13,-5.6 -0.76,-0.94 -2.22,-1.27 -4.35,-1 l -5.51,0.68 -0.06,31.71 z"
       id="path864"
       style="fill:url(#linearGradient923);stroke:none" />
    <path
       class="cls-3"
       d="m 465.4,490.45 c 0.05,-9 2.09,-15.72 6.15,-20.05 4.06,-4.33 10.3,-6.44 18.71,-6.44 a 27.16,27.16 0 0 1 12,2.49 16.13,16.13 0 0 1 7.49,7.06 22,22 0 0 1 1.46,3.59 29.73,29.73 0 0 1 0.93,4.38 51,51 0 0 1 0.48,5.83 c 0.07,2.21 0.1,4.89 0.08,8.06 q -0.15,21.54 -0.29,43.08 0,5.06 -0.12,8.22 a 41.91,41.91 0 0 1 -0.42,5.38 A 22.76,22.76 0 0 1 511,556 c -0.4,1.16 -0.94,2.5 -1.64,4 a 19.93,19.93 0 0 1 -8,8.52 39,39 0 0 1 -14.09,4.91 c -14.56,2.56 -21.89,-4.26 -22.06,-21 z m 29.32,1.89 q 0,-4.72 -1.24,-6.68 -1.24,-1.96 -4.37,-1.87 c -3.95,0.11 -5.94,3 -6,8.61 l -0.3,50.25 q 0,6.93 1.17,9.24 c 0.8,1.54 2.36,2.14 4.67,1.82 3.77,-0.53 5.68,-3.63 5.71,-9.34 z"
       id="path866"
       style="fill:url(#linear-gradient-2);stroke:none" />
    <path
       class="cls-4"
       d="m 520.52,465.82 h 17.91 l -0.51,80.3 q 6.71,-0.6 13.43,-1.13 0,9.15 -0.1,18.31 -15.72,1.51 -31.39,3.56 z"
       id="path868"
       style="fill:url(#linear-gradient-3);stroke:none" />
    <path
       class="cls-5"
       d="m 556.33,465.74 h 17.91 q -0.19,38.83 -0.38,77.69 6.74,-0.39 13.46,-0.71 0,8.91 -0.07,17.81 -15.75,0.9 -31.48,2.33 0.29,-48.56 0.56,-97.12 z"
       id="path870"
       style="fill:url(#linear-gradient-4)" />
    <path
       class="cls-6"
       d="m 597.1,523.78 q -8.18,-28.81 -16.29,-58.07 h 17.52 q 4.06,16.85 8.15,33.56 4.24,-16.83 8.47,-33.57 h 17.39 q -8.6,28.94 -17.25,58.08 0,17.79 -0.08,35.59 -9,0.24 -18,0.66 z"
       id="path872"
       style="fill:url(#linear-gradient-5);stroke:none"
       sodipodi:insensitive="true" />
    <path
       class="cls-7"
       d="m 631.05,465.68 h 16.49 q 3,25.19 6,50.41 4.63,-25.17 9.22,-50.41 H 677 l 7.65,50.94 q 3.52,-25.38 7,-50.93 h 16.62 q -7.49,47.91 -15.07,94.82 -8.57,-0.49 -17.12,-0.82 -3.64,-28 -7.27,-55.76 -4,27.7 -8,55.29 -8.12,-0.19 -16.23,-0.23 -6.81,-46.66 -13.53,-93.31 z"
       id="path874"
       style="fill:url(#linear-gradient-6);stroke:none" />
    <path
       class="cls-8"
       d="m 711.54,487.17 c 0,-7.87 2,-13.68 6,-17.48 4,-3.8 10.2,-5.69 18.61,-5.69 a 28.09,28.09 0 0 1 12.06,2.39 16.18,16.18 0 0 1 7.58,7 22.07,22.07 0 0 1 1.51,3.58 31.3,31.3 0 0 1 1,4.36 50.84,50.84 0 0 1 0.56,5.78 q 0.15,3.29 0.18,8 0.13,21.3 0.28,42.62 c 0,3.32 0,6 0,8.11 A 42.28,42.28 0 0 1 759,551 a 19.21,19.21 0 0 1 -0.88,3.67 32.54,32.54 0 0 1 -1.59,3.58 13,13 0 0 1 -7.89,6.28 c -3.73,1.25 -8.44,1.54 -14.13,1 -14.66,-1.53 -22.18,-9.37 -22.51,-24 q -0.26,-27.22 -0.46,-54.36 z m 29.46,3.58 q 0,-4.46 -1.33,-6.38 -1.33,-1.92 -4.39,-2 -5.94,-0.11 -5.89,7.61 l 0.28,46.05 q 0,6.34 1.28,8.71 c 0.82,1.58 2.4,2.48 4.73,2.68 3.79,0.33 5.66,-2.19 5.63,-7.59 Q 741.12,515.32 741,490.75 Z"
       id="path876"
       style="fill:url(#linear-gradient-7);stroke:none" />
    <path
       class="cls-9"
       d="m 766.46,488.57 c -0.06,-8.34 1.92,-14.48 5.93,-18.51 C 776.4,466.03 782.61,464 791,464 a 26.16,26.16 0 0 1 12.06,2.59 16.69,16.69 0 0 1 7.58,7.57 26,26 0 0 1 1.5,3.88 36.83,36.83 0 0 1 1,4.74 c 0.26,1.81 0.44,3.91 0.54,6.28 0.1,2.37 0.16,5.27 0.17,8.67 L 814.1,544 c 0,3.62 0,6.55 0,8.81 a 46.63,46.63 0 0 1 -0.36,5.66 20.79,20.79 0 0 1 -0.87,4 36.92,36.92 0 0 1 -1.58,3.81 12.31,12.31 0 0 1 -7.84,6.42 c -3.71,1.17 -8.39,1.23 -14,0.29 -14.57,-2.45 -22.06,-11.18 -22.42,-26.73 q -0.32,-28.9 -0.57,-57.69 z m 29.37,4.23 c 0,-3.2 -0.46,-5.5 -1.32,-6.88 a 5,5 0 0 0 -4.39,-2.15 q -5.93,-0.18 -5.88,8.08 0.16,24.64 0.32,49.3 c 0,4.52 0.45,7.64 1.28,9.38 a 5.62,5.62 0 0 0 4.71,3.07 c 3.77,0.52 5.63,-2.1 5.6,-7.92 Q 796,519.23 795.83,492.8 Z"
       id="path878"
       style="fill:url(#linear-gradient-8);stroke:none" />
    <path
       class="cls-10"
       d="m 820.66,466 25.37,0.09 c 2.06,0 3.8,0.05 5.21,0.11 a 33.19,33.19 0 0 1 3.74,0.35 13.77,13.77 0 0 1 2.9,0.77 25.55,25.55 0 0 1 2.83,1.37 10.36,10.36 0 0 1 5,6.61 q 1.42,4.72 1.42,14.65 v 72.15 c 0,2.17 0,4 -0.07,5.55 a 36.65,36.65 0 0 1 -0.31,4 21.62,21.62 0 0 1 -0.7,3.17 c -0.3,1 -0.66,2 -1.08,3 a 8.22,8.22 0 0 1 -4.44,5.06 c -0.85,0.36 -1.61,0.65 -2.29,0.88 a 6.41,6.41 0 0 1 -2.35,0.28 25.45,25.45 0 0 1 -3.18,-0.42 c -1.23,-0.23 -2.73,-0.56 -4.51,-1 q -13.49,-3.1 -27.05,-5.81 z M 844,560.48 c 2.13,0.39 3.63,-0.06 4.53,-1.38 0.9,-1.32 1.33,-3.74 1.32,-7.27 l -0.12,-56.65 q 0,-4.46 -1.17,-6.09 -1.17,-1.63 -4.5,-1.76 l -5.65,-0.25 q 0.11,36.21 0.23,72.43 z"
       id="path880"
       style="fill:url(#linear-gradient-9);stroke:none" />
    <path
       class="cls-11"
       d="m 781.85,324.53 q -1.29,5.63 -3,11.09 c -0.75,2.4 -1.57,4.77 -2.44,7.11 a 145.54,145.54 0 0 1 -272.61,0.5 c -1,-2.5 -1.82,-5 -2.63,-7.61 q -1.73,-5.46 -3,-11.09 l 0.46,-0.14 c 40.4,-12.31 87.26,-19.5 137.3,-19.87 h 7.55 c 50.1,0.32 97,7.46 137.48,19.75 z"
       id="path882"
       style="fill:url(#linear-gradient-10)" />
    <path
       class="cls-12"
       d="m 506,334 a 359.5,359.5 0 0 1 129,-19 111.7,111.7 0 0 1 -58,30 c -35.28,6.32 -62.58,-6.59 -71,-11 z"
       id="path884"
       style="fill:url(#linear-gradient-11)" />
    <path
       class="cls-13"
       d="m 646.67,315.05 a 284.41,284.41 0 0 1 128.92,19.55 111.78,111.78 0 0 1 -64.24,11.73 c -35.57,-4.27 -57.9,-24.59 -64.68,-31.28 z"
       id="path886"
       style="fill:url(#linear-gradient-12)" />
    <path
       class="cls-14"
       d="m 781.85,324.53 q -1.29,5.63 -3,11.09 C 737.92,323.45 690.52,316.5 640,316.5 c -50.52,0 -97.92,6.95 -138.84,19.12 q -1.73,-5.46 -3,-11.09 c 41.6,-12.73 90.08,-20 141.85,-20 51.77,0 100.24,7.27 141.84,20 z"
       id="path888" />
    <path
       class="cls-15"
       d="m 501.53,327.91 c 1.18,-0.27 2.72,0.92 3.68,1.46 a 11.87,11.87 0 0 0 4.13,1.71 c 3.18,0.4 4.72,-2.74 6.09,-5 0.48,-0.81 1.21,-2.4 2.29,-2.45 1.27,0 2.82,1.31 3.85,1.93 2.56,1.55 5.32,2.51 7.6,0 a 35,35 0 0 0 2.63,-3.78 c 0.53,-0.79 1.21,-1.95 2.29,-1.72 1.42,0.29 2.75,1.55 3.95,2.31 a 7.48,7.48 0 0 0 4,1.49 c 3.05,0 4.52,-3.49 6.13,-5.55 0.71,-0.91 1.33,-1.7 2.52,-1.19 a 26.89,26.89 0 0 1 3.94,2.61 6.33,6.33 0 0 0 3.89,1.3 5.52,5.52 0 0 0 3.52,-2.23 c 1,-1.19 1.8,-2.56 2.9,-3.67 1.1,-1.11 1.57,-0.85 2.69,-0.15 2.29,1.44 4.79,4.52 7.83,3.66 3.04,-0.86 3.95,-4.2 6.2,-5.91 1.06,-0.81 2.08,0.09 3,0.78 a 27.32,27.32 0 0 0 3.83,2.87 c 3.06,1.6 5.27,-0.35 7.21,-2.63 0.72,-0.85 1.79,-2.59 3,-2.86 1.21,-0.27 2.31,1.14 3,1.76 2.14,1.87 4.73,4.28 7.67,2.49 a 16.72,16.72 0 0 0 3.41,-3.26 c 0.65,-0.71 1.7,-2.15 2.78,-2 1.29,0.21 2.55,1.88 3.45,2.69 a 8.72,8.72 0 0 0 3.76,2.38 c 3.15,0.71 5.33,-2.69 7.3,-4.52 1,-0.93 1.69,-1.39 2.87,-0.53 1.18,0.86 2.2,2.12 3.35,3.12 a 5.87,5.87 0 0 0 3.86,1.78 6.16,6.16 0 0 0 3.72,-1.89 31.5,31.5 0 0 1 3.46,-3.18 c 1.12,-0.72 1.87,0 2.73,0.81 2,1.89 4.21,5.25 7.4,4.35 a 9.36,9.36 0 0 0 3.63,-2.44 c 0.86,-0.79 2.11,-2.41 3.35,-2.59 1.24,-0.18 2.29,1.51 3,2.24 a 14.32,14.32 0 0 0 3.29,3.07 c 3,1.71 5.54,-0.82 7.66,-2.67 0.72,-0.63 1.92,-1.93 3,-1.62 1.08,0.31 2.22,2.07 3,2.95 2,2.35 4.31,4.13 7.35,2.36 a 39.73,39.73 0 0 0 3.67,-2.82 c 0.94,-0.72 1.86,-1.48 2.92,-0.64 2.19,1.74 3.28,5.16 6.23,5.88 2.95,0.72 5.51,-2.37 7.83,-3.78 1.21,-0.73 1.79,-0.6 2.74,0.44 0.95,1.04 1.8,2.43 2.79,3.58 a 5.23,5.23 0 0 0 3.53,2.11 6.77,6.77 0 0 0 4,-1.5 21.34,21.34 0 0 1 3.73,-2.47 c 1.18,-0.48 1.86,0.48 2.52,1.36 1.56,2.05 3.1,5.47 6.14,5.41 a 8.16,8.16 0 0 0 4.13,-1.68 c 1.08,-0.71 2.45,-2 3.79,-2.17 1.08,-0.13 1.8,1.23 2.32,2 a 26.07,26.07 0 0 0 2.53,3.62 c 2.39,2.56 5.22,1.32 7.78,-0.26 0.93,-0.57 2.49,-1.91 3.67,-1.75 1,0.14 1.77,1.8 2.23,2.57 1.39,2.34 3,5.41 6.19,4.87 a 13,13 0 0 0 4.07,-1.78 c 0.91,-0.51 2.38,-1.64 3.51,-1.38 1.88,0.42 2.68,-2.47 0.8,-2.9 -3.18,-0.72 -5.57,2.07 -8.37,3 -1.2,0.38 -1.73,-0.29 -2.38,-1.25 -0.84,-1.27 -1.5,-2.64 -2.41,-3.86 a 4.82,4.82 0 0 0 -3.4,-2.23 7.13,7.13 0 0 0 -4,1.26 c -1.28,0.74 -2.59,1.87 -4.05,2.22 -1.16,0.28 -1.82,-0.88 -2.4,-1.73 -1.45,-2.16 -3,-5.5 -6,-5.41 a 8.31,8.31 0 0 0 -4.13,1.75 c -1,0.67 -2.49,2.06 -3.79,2.12 -1.05,0 -1.83,-1.33 -2.36,-2.09 A 20.5,20.5 0 0 0 732.7,315 c -2.55,-2.32 -5.24,-0.83 -7.63,0.89 -0.88,0.64 -2.45,2.16 -3.64,2 -1.19,-0.16 -2,-1.84 -2.59,-2.62 -1.67,-2.25 -3.68,-4.93 -6.84,-3.74 a 16.41,16.41 0 0 0 -4,2.61 c -0.78,0.58 -2.1,1.83 -3.15,1.38 -1.05,-0.45 -2.09,-2.11 -2.85,-3.06 a 9,9 0 0 0 -3.25,-2.92 c -3,-1.28 -5.54,1.64 -7.68,3.27 -0.94,0.72 -1.87,1.5 -3,0.7 a 24.67,24.67 0 0 1 -3.08,-3.38 6.8,6.8 0 0 0 -3.33,-2.31 5,5 0 0 0 -4,1.19 c -1.29,0.95 -2.38,2.16 -3.71,3.07 -1.14,0.78 -1.75,0.7 -2.75,-0.24 -2,-1.86 -3.93,-5.36 -7.1,-5.05 -3.17,0.31 -4.58,3.89 -7.33,5 -1.12,0.47 -2.14,-0.82 -2.84,-1.54 A 21.46,21.46 0 0 0 650.44,307 c -2.94,-1.87 -5.43,0.36 -7.49,2.39 -0.73,0.72 -2,2.33 -3.11,2.31 -1.11,-0.02 -2.41,-1.7 -3.15,-2.43 -2.15,-2.11 -4.69,-4.15 -7.63,-2.1 a 27.45,27.45 0 0 0 -3.5,3.32 c -0.75,0.75 -1.64,1.78 -2.75,1.24 -2.66,-1.27 -4.22,-4.89 -7.47,-5 -3.25,-0.11 -4.93,3.38 -7,5.18 -1.1,1 -1.76,0.8 -2.91,0 -1.15,-0.8 -2.33,-2.07 -3.6,-3 a 4.87,4.87 0 0 0 -4,-1.07 7.46,7.46 0 0 0 -3.43,2.52 19.94,19.94 0 0 1 -2.95,3.2 c -1.09,0.77 -2.11,-0.14 -3,-0.83 -2.16,-1.67 -4.78,-4.56 -7.77,-3.11 a 9.87,9.87 0 0 0 -3.19,3 c -0.71,0.89 -1.69,2.61 -2.85,3 -1.16,0.39 -2.53,-1 -3.34,-1.65 a 14.77,14.77 0 0 0 -3.82,-2.44 c -3.23,-1.14 -5.26,1.81 -6.93,4.07 -0.59,0.78 -1.52,2.38 -2.65,2.35 -1.13,-0.03 -2.63,-1.42 -3.55,-2.08 -2.48,-1.78 -5.2,-3.07 -7.71,-0.6 a 25.55,25.55 0 0 0 -2.67,3.53 c -0.56,0.78 -1.32,2.09 -2.42,1.93 -1.41,-0.22 -2.79,-1.53 -3.95,-2.27 a 7.84,7.84 0 0 0 -4,-1.57 c -3.1,0 -4.58,3.54 -6.09,5.69 -0.61,0.87 -1.21,1.77 -2.36,1.45 -1.47,-0.42 -2.76,-1.53 -4.08,-2.27 a 6.44,6.44 0 0 0 -4.24,-1.12 5.29,5.29 0 0 0 -3.09,2.3 c -0.91,1.23 -1.56,2.62 -2.42,3.87 -0.75,1.09 -1.3,1.53 -2.59,1 -2.65,-1 -5.06,-3.56 -8.12,-2.86 -1.88,0.43 -1.08,3.33 0.8,2.9 z"
       id="path890" />
    <g
       class="cls-16"
       clip-path="url(#clip-path)"
       id="g898">
      <path
         class="cls-17"
         d="m 507,371 v 48 h 267 v -48 z m 5,43 v -38 h 46 v 38 z m 50.5,0 V 376 H 604 v 38 z m 46,0 V 376 H 649 v 38 z m 45,0 V 376 H 694 v 38 z m 45,0 V 376 H 740 v 38 z m 70.5,0 H 744.5 V 376 H 769 Z"
         id="path892"
         style="stroke:none" />
      <path
         class="cls-17"
         d="m 832.48,368 h -7 v -6 h 7 z m -13,0 h -7 v -6 h 7 z m -13,0 h -7 v -6 h 7 z m -13,0 h -7 v -6 h 7 z m -13,0 h -7 v -6 h 7 z m -13,0 h -7 v -6 h 7 z m -13,0 h -7 v -6 h 7 z m -13,0 h -7 v -6 h 7 z m -13,0 h -7 v -6 h 7 z m -13,0 h -7 v -6 h 7 z m -13,0 h -7 v -6 h 7 z m -13,0 h -7 v -6 h 7 z m -13,0 h -7 v -6 h 7 z m -13,0 h -7 v -6 h 7 z m -13,0 h -7 v -6 h 7 z m -13,0 h -7 v -6 h 7 z m -13,0 h -7 v -6 h 7 z m -13,0 h -7 v -6 h 7 z m -13,0 h -7 v -6 h 7 z m -13,0 h -7 v -6 h 7 z m -13,0 h -7 v -6 h 7 z m -13,0 h -7 v -6 h 7 z m -13,0 h -7 v -6 h 7 z m -13,0 h -7 v -6 h 7 z m -13,0 h -7 v -6 h 7 z m -13,0 h -7 v -6 h 7 z m -13,0 h -7 v -6 h 7 z m -13,0 h -7 v -6 h 7 z m -13,0 h -7 v -6 h 7 z m -13,0 h -7 v -6 h 7 z"
         id="path894"
         style="stroke:none" />
      <path
         class="cls-17"
         d="m 832,429 h -7 v -6 h 7 z m -13,0 h -7 v -6 h 7 z m -13,0 h -7 v -6 h 7 z m -13,0 h -7 v -6 h 7 z m -13,0 h -7 v -6 h 7 z m -13,0 h -7 v -6 h 7 z m -13,0 h -7 v -6 h 7 z m -13,0 h -7 v -6 h 7 z m -13,0 h -7 v -6 h 7 z m -13,0 h -7 v -6 h 7 z m -13,0 h -7 v -6 h 7 z m -13,0 h -7 v -6 h 7 z m -13,0 h -7 v -6 h 7 z m -13,0 h -7 v -6 h 7 z m -13,0 h -7 v -6 h 7 z m -13,0 h -7 v -6 h 7 z m -13,0 h -7 v -6 h 7 z m -13,0 h -7 v -6 h 7 z m -13,0 h -7 v -6 h 7 z m -13,0 h -7 v -6 h 7 z m -13,0 h -7 v -6 h 7 z m -13,0 h -7 v -6 h 7 z m -13,0 h -7 v -6 h 7 z m -13,0 h -7 v -6 h 7 z m -13,0 h -7 v -6 h 7 z m -13,0 h -7 v -6 h 7 z m -13,0 h -7 v -6 h 7 z m -13,0 h -7 v -6 h 7 z m -13,0 h -7 v -6 h 7 z m -13,0 h -7 v -6 h 7 z"
         id="path896"
         style="stroke:none" />
    </g>
    <path
       class="cls-18"
       d="m 635.48,308 c -9.6,17.3 -37.56,30.82 -71.2,32.58 -27.09,1.42 -51.33,-5.13 -65.67,-16.2 l -0.46,0.14 q 1.29,5.63 3,11.09 c 0.81,2.57 1.68,5.11 2.63,7.61 15.26,9.26 37.45,14.46 61.85,13.18 39.1,-2 70.8,-20.06 76.86,-42 z"
       id="path900"
       style="stroke:none" />
    <path
       class="cls-18"
       d="m 780.94,324.26 c -14.31,11.15 -38.64,17.76 -65.85,16.33 -33.39,-1.75 -61.17,-15.08 -71,-32.19 l -4.16,3.6 1.38,1.23 -1.38,-1.23 -1.32,1.14 1.32,-1.14 -4,-3.61 c 1.45,24.59 35.26,45.76 77.85,48 24.84,1.3 47.39,-4.11 62.67,-13.68 0.87,-2.34 1.69,-4.71 2.44,-7.11 q 1.73,-5.46 3,-11.09 z"
       id="path902"
       style="stroke:none" />
    <path
       class="cls-19"
       d="m 618.5,269 a 53.42,53.42 0 0 0 8.08,26.8 c 1.49,2.1 3,4 4.36,5.7 a 38,38 0 0 1 -6.59,-27.62 c 2.34,-14.5 12.89,-22.67 15.36,-24.49 a 1.73,1.73 0 0 1 0.21,0.17 v -25.45 c -2.28,1.77 -22.14,17.8 -21.42,44.89 z"
       id="path904" />
    <path
       class="cls-19"
       d="m 639.93,274 c -1,0.87 -10.49,9.31 -8.95,22 a 24.56,24.56 0 0 0 7,14.19 c 1,1 1.7,1.57 1.93,1.77 z"
       id="path906" />
    <path
       class="cls-20"
       d="M 643.52,308.39 A 24.45,24.45 0 0 0 649,295 c 1,-12.37 -8.1,-20.24 -9,-21 h -0.05 v 38 H 640 c 1.24,-1.15 2.4,-2.37 3.52,-3.61 z"
       id="path908" />
    <path
       class="cls-20"
       d="m 653.63,269.94 c 3.34,12.8 -0.68,26.77 -10.21,37.46 a 26,26 0 0 1 -3.45,3.53 c 2.36,-2 21.18,-18.15 20.49,-44.89 -0.64,-25 -17.87,-39.79 -20.49,-42 h -0.05 v 25.41 a 39,39 0 0 1 13.71,20.49 z"
       id="path910" />
    <path
       class="cls-20"
       d="m 677,234 c -1.83,-42.51 -32.7,-66.74 -37,-70 h -0.05 v 30 H 640 c 4.7,3.57 24.84,19.71 29,48 5.9,40.11 -25.8,67.38 -28.83,69.87 C 644.35,308.63 679,280.59 677,234 Z"
       id="path912" />
    <path
       class="cls-19"
       d="m 603,234 c 1.83,-42.51 32.7,-66.74 37,-70 v 0 30 0 c -4.7,3.57 -24.84,19.71 -29,48 -5.9,40.11 25.8,67.38 28.83,69.87 C 635.65,308.63 601,280.59 603,234 Z"
       id="path914"
       style="display:inline" />
  </g>
</svg>
